<svg width="33" height="33" viewBox="0 0 33 33" fill="none" xmlns="http://www.w3.org/2000/svg">
<path d="M16.4404 0.5C25.2437 0.500232 32.3799 7.63715 32.3799 16.4404C32.3797 25.2435 25.2435 32.3797 16.4404 32.3799C7.63715 32.3799 0.500232 25.2437 0.5 16.4404C0.5 7.63701 7.63701 0.5 16.4404 0.5Z" stroke="#A9A9A9"/>
<path d="M20.4443 17.4903L20.9126 14.4369H17.983V12.4563C17.983 11.6208 18.3915 10.8058 19.7036 10.8058H21.0364V8.20631C21.0364 8.20631 19.8274 8 18.6721 8C16.2583 8 14.682 9.46274 14.682 12.1097V14.4369H12V17.4903H14.682V24.8721C15.2205 24.9567 15.7714 25 16.3325 25C16.8937 25 17.4445 24.9567 17.983 24.8721V17.4903H20.4443Z" fill="white"/>
</svg>
