<svg width="33" height="33" viewBox="0 0 33 33" fill="none" xmlns="http://www.w3.org/2000/svg">
<path d="M16.4404 0.5C25.2437 0.500232 32.3799 7.63715 32.3799 16.4404C32.3797 25.2435 25.2435 32.3797 16.4404 32.3799C7.63715 32.3799 0.500232 25.2437 0.5 16.4404C0.5 7.63701 7.63701 0.5 16.4404 0.5Z" stroke="#A9A9A9"/>
<path d="M16.8772 9.53165C19.1477 9.53165 19.4142 9.54177 20.3116 9.58226C21.1416 9.61937 21.5903 9.75769 21.8905 9.87577C22.2886 10.031 22.572 10.2131 22.8689 10.51C23.1658 10.8069 23.3513 11.0903 23.5031 11.4884C23.6179 11.7886 23.7596 12.2373 23.7967 13.0673C23.8371 13.9647 23.8473 14.2312 23.8473 16.5017C23.8473 18.7722 23.8371 19.0387 23.7967 19.9361C23.7596 20.766 23.6212 21.2147 23.5031 21.515C23.348 21.9131 23.1658 22.1965 22.8689 22.4934C22.572 22.7902 22.2886 22.9758 21.8905 23.1276C21.5903 23.2423 21.1416 23.384 20.3116 23.4211C19.4142 23.4616 19.1477 23.4717 16.8772 23.4717C14.6067 23.4717 14.3402 23.4616 13.4428 23.4211C12.6129 23.384 12.1642 23.2457 11.8639 23.1276C11.4658 22.9724 11.1824 22.7902 10.8856 22.4934C10.5887 22.1965 10.4031 21.9131 10.2513 21.515C10.1366 21.2147 9.9949 20.766 9.95779 19.9361C9.91731 19.0387 9.90719 18.7722 9.90719 16.5017C9.90719 14.2312 9.91731 13.9647 9.95779 13.0673C9.9949 12.2373 10.1332 11.7886 10.2513 11.4884C10.4065 11.0903 10.5887 10.8069 10.8856 10.51C11.1824 10.2131 11.4658 10.0276 11.8639 9.87577C12.1642 9.76106 12.6129 9.61937 13.4428 9.58226C14.3402 9.5384 14.6101 9.53165 16.8772 9.53165ZM16.8772 8C14.5696 8 14.2795 8.01012 13.372 8.05061C12.4678 8.09109 11.8504 8.23616 11.3106 8.44533C10.7506 8.66124 10.2783 8.95475 9.80598 9.42707C9.33366 9.89938 9.04352 10.3751 8.82423 10.9317C8.61506 11.4715 8.47 12.0889 8.42951 12.9964C8.38903 13.9006 8.37891 14.1907 8.37891 16.4983C8.37891 18.8059 8.38903 19.0961 8.42951 20.0036C8.47 20.9077 8.61506 21.5251 8.82423 22.0683C9.04015 22.6283 9.33366 23.1006 9.80598 23.5729C10.2783 24.0452 10.754 24.3354 11.3106 24.5547C11.8504 24.7638 12.4678 24.9089 13.3753 24.9494C14.2829 24.9899 14.5696 25 16.8806 25C19.1916 25 19.4783 24.9899 20.3859 24.9494C21.29 24.9089 21.9074 24.7638 22.4506 24.5547C23.0106 24.3388 23.4829 24.0452 23.9552 23.5729C24.4275 23.1006 24.7177 22.6249 24.937 22.0683C25.1461 21.5285 25.2912 20.9111 25.3317 20.0036C25.3722 19.0961 25.3823 18.8093 25.3823 16.4983C25.3823 14.1873 25.3722 13.9006 25.3317 12.9931C25.2912 12.0889 25.1461 11.4715 24.937 10.9284C24.7211 10.3683 24.4275 9.89601 23.9552 9.4237C23.4829 8.95138 23.0072 8.66124 22.4506 8.44195C21.9108 8.23278 21.2934 8.08772 20.3859 8.04723C19.475 8.01012 19.1848 8 16.8772 8Z" fill="white"/>
<path d="M16.8773 12.1345C14.4685 12.1345 12.5117 14.0878 12.5117 16.5C12.5117 18.9122 14.4651 20.8656 16.8773 20.8656C19.2895 20.8656 21.2428 18.9122 21.2428 16.5C21.2428 14.0878 19.2895 12.1345 16.8773 12.1345ZM16.8773 19.3305C15.3119 19.3305 14.0434 18.062 14.0434 16.4966C14.0434 14.9312 15.3119 13.6627 16.8773 13.6627C18.4427 13.6627 19.7112 14.9312 19.7112 16.4966C19.7112 18.062 18.4427 19.3305 16.8773 19.3305Z" fill="white"/>
<path d="M21.4153 12.9792C21.978 12.9792 22.4342 12.523 22.4342 11.9603C22.4342 11.3976 21.978 10.9415 21.4153 10.9415C20.8526 10.9415 20.3965 11.3976 20.3965 11.9603C20.3965 12.523 20.8526 12.9792 21.4153 12.9792Z" fill="white"/>
</svg>
