<svg width="33" height="33" viewBox="0 0 33 33" fill="none" xmlns="http://www.w3.org/2000/svg">
<path d="M16.4404 0.5C25.2437 0.500232 32.3799 7.63715 32.3799 16.4404C32.3797 25.2435 25.2435 32.3797 16.4404 32.3799C7.63715 32.3799 0.500232 25.2437 0.5 16.4404C0.5 7.63701 7.63701 0.5 16.4404 0.5Z" fill="white"/>
<path d="M16.4404 0.5C25.2437 0.500232 32.3799 7.63715 32.3799 16.4404C32.3797 25.2435 25.2435 32.3797 16.4404 32.3799C7.63715 32.3799 0.500232 25.2437 0.5 16.4404C0.5 7.63701 7.63701 0.5 16.4404 0.5Z" stroke="#A9A9A9"/>
<path d="M16.877 9.53165C19.1475 9.53165 19.414 9.54177 20.3114 9.58226C21.1413 9.61937 21.59 9.75769 21.8903 9.87577C22.2884 10.031 22.5718 10.2131 22.8687 10.51C23.1655 10.8069 23.3511 11.0903 23.5029 11.4884C23.6176 11.7886 23.7593 12.2373 23.7964 13.0673C23.8369 13.9647 23.847 14.2312 23.847 16.5017C23.847 18.7722 23.8369 19.0387 23.7964 19.9361C23.7593 20.766 23.621 21.2147 23.5029 21.515C23.3477 21.9131 23.1655 22.1965 22.8687 22.4934C22.5718 22.7902 22.2884 22.9758 21.8903 23.1276C21.59 23.2423 21.1413 23.384 20.3114 23.4211C19.414 23.4616 19.1475 23.4717 16.877 23.4717C14.6065 23.4717 14.34 23.4616 13.4426 23.4211C12.6126 23.384 12.1639 23.2457 11.8637 23.1276C11.4656 22.9724 11.1822 22.7902 10.8853 22.4934C10.5884 22.1965 10.4029 21.9131 10.2511 21.515C10.1364 21.2147 9.99466 20.766 9.95755 19.9361C9.91706 19.0387 9.90694 18.7722 9.90694 16.5017C9.90694 14.2312 9.91706 13.9647 9.95755 13.0673C9.99466 12.2373 10.133 11.7886 10.2511 11.4884C10.4062 11.0903 10.5884 10.8069 10.8853 10.51C11.1822 10.2131 11.4656 10.0276 11.8637 9.87577C12.1639 9.76106 12.6126 9.61937 13.4426 9.58226C14.34 9.5384 14.6099 9.53165 16.877 9.53165ZM16.877 8C14.5694 8 14.2792 8.01012 13.3717 8.05061C12.4676 8.09109 11.8502 8.23616 11.3104 8.44533C10.7504 8.66124 10.278 8.95475 9.80573 9.42707C9.33342 9.89938 9.04328 10.3751 8.82399 10.9317C8.61482 11.4715 8.46975 12.0889 8.42927 12.9964C8.38878 13.9006 8.37866 14.1907 8.37866 16.4983C8.37866 18.8059 8.38878 19.0961 8.42927 20.0036C8.46975 20.9077 8.61482 21.5251 8.82399 22.0683C9.0399 22.6283 9.33342 23.1006 9.80573 23.5729C10.278 24.0452 10.7537 24.3354 11.3104 24.5547C11.8502 24.7638 12.4676 24.9089 13.3751 24.9494C14.2826 24.9899 14.5694 25 16.8804 25C19.1913 25 19.4781 24.9899 20.3856 24.9494C21.2898 24.9089 21.9072 24.7638 22.4503 24.5547C23.0103 24.3388 23.4827 24.0452 23.955 23.5729C24.4273 23.1006 24.7174 22.6249 24.9367 22.0683C25.1459 21.5285 25.291 20.9111 25.3314 20.0036C25.3719 19.0961 25.382 18.8093 25.382 16.4983C25.382 14.1873 25.3719 13.9006 25.3314 12.9931C25.291 12.0889 25.1459 11.4715 24.9367 10.9284C24.7208 10.3683 24.4273 9.89601 23.955 9.4237C23.4827 8.95138 23.007 8.66124 22.4503 8.44195C21.9105 8.23278 21.2931 8.08772 20.3856 8.04723C19.4747 8.01012 19.1846 8 16.877 8Z" fill="black"/>
<path d="M16.877 12.1345C14.4682 12.1345 12.5115 14.0878 12.5115 16.5C12.5115 18.9122 14.4648 20.8656 16.877 20.8656C19.2892 20.8656 21.2426 18.9122 21.2426 16.5C21.2426 14.0878 19.2892 12.1345 16.877 12.1345ZM16.877 19.3305C15.3116 19.3305 14.0431 18.062 14.0431 16.4966C14.0431 14.9312 15.3116 13.6627 16.877 13.6627C18.4424 13.6627 19.7109 14.9312 19.7109 16.4966C19.7109 18.062 18.4424 19.3305 16.877 19.3305Z" fill="black"/>
<path d="M21.4146 12.9792C21.9773 12.9792 22.4335 12.523 22.4335 11.9603C22.4335 11.3976 21.9773 10.9415 21.4146 10.9415C20.8519 10.9415 20.3958 11.3976 20.3958 11.9603C20.3958 12.523 20.8519 12.9792 21.4146 12.9792Z" fill="black"/>
</svg>
