<svg width="44" height="44" viewBox="0 0 44 44" fill="none" xmlns="http://www.w3.org/2000/svg">
<path d="M12.4284 4.66064L38.8391 4.66064C40.5552 4.66064 41.9463 6.05176 41.9463 7.76779V27.9642C41.9463 29.6802 40.5552 31.0714 38.8391 31.0714L12.4284 31.0714C10.7124 31.0714 9.32129 29.6802 9.32129 27.9642V7.76779C9.32129 6.05176 10.7124 4.66064 12.4284 4.66064Z" stroke="#F47321" stroke-width="2" stroke-linecap="round" stroke-linejoin="round"/>
<path d="M1.55371 12.4285V35.7321C1.55371 36.5562 1.88107 37.3465 2.46377 37.9292C3.04647 38.5119 3.83679 38.8392 4.66085 38.8392H32.6251" stroke="#F47321" stroke-width="2" stroke-linecap="round" stroke-linejoin="round"/>
<path d="M11.1855 4.90913L23.3966 17.8038C23.6854 18.1211 24.0368 18.3753 24.4287 18.5501C24.8206 18.7249 25.2445 18.8167 25.6736 18.8196C26.1027 18.8225 26.5277 18.7366 26.922 18.5671C27.3162 18.3976 27.671 18.1483 27.9641 17.8348L40.2373 4.97127" stroke="#F47321" stroke-width="2" stroke-linecap="round" stroke-linejoin="round"/>
</svg>
