<svg width="42" height="42" viewBox="0 0 42 42" fill="none" xmlns="http://www.w3.org/2000/svg">
<g clip-path="url(#clip0_0_2650)">
<path d="M21 40.5C31.7696 40.5 40.5 31.7696 40.5 21C40.5 10.2304 31.7696 1.5 21 1.5C10.2304 1.5 1.5 10.2304 1.5 21C1.5 31.7696 10.2304 40.5 21 40.5Z" stroke="#F47321" stroke-width="2" stroke-linecap="round" stroke-linejoin="round"/>
<path d="M37.4395 10.5H25.4395C23.8482 10.5 22.322 11.1321 21.1968 12.2574C20.0716 13.3826 19.4395 14.9087 19.4395 16.5C19.4395 18.0913 20.0716 19.6174 21.1968 20.7426C22.322 21.8679 23.8482 22.5 25.4395 22.5C26.2351 22.5 26.9982 22.8161 27.5608 23.3787C28.1234 23.9413 28.4395 24.7044 28.4395 25.5V39" stroke="#F47321" stroke-width="2" stroke-linecap="round" stroke-linejoin="round"/>
<path d="M1.74023 24H9.00023C10.5915 24 12.1177 24.6321 13.2429 25.7574C14.3681 26.8826 15.0002 28.4087 15.0002 30V39.57" stroke="#F47321" stroke-width="2" stroke-linecap="round" stroke-linejoin="round"/>
</g>
<defs>
<clipPath id="clip0_0_2650">
<rect width="42" height="42" fill="white"/>
</clipPath>
</defs>
</svg>
