<svg width="44" height="44" viewBox="0 0 44 44" fill="none" xmlns="http://www.w3.org/2000/svg">
<path d="M27.0019 40.0705C28.9001 41.2951 31.1621 41.8287 33.4075 41.5817C35.6528 41.3347 37.7447 40.3222 39.3313 38.7142L40.7184 37.358C41.3265 36.736 41.6669 35.9007 41.6669 35.0308C41.6669 34.161 41.3265 33.3257 40.7184 32.7037L34.8311 26.878C34.2143 26.2719 33.3841 25.9322 32.5193 25.9322C31.6545 25.9322 30.8244 26.2719 30.2076 26.878V26.878C29.5856 27.4861 28.7503 27.8266 27.8804 27.8266C27.0105 27.8266 26.1752 27.4861 25.5532 26.878L16.3062 17.631C15.9977 17.327 15.7528 16.9647 15.5856 16.5652C15.4184 16.1657 15.3322 15.7369 15.3322 15.3038C15.3322 14.8707 15.4184 14.442 15.5856 14.0424C15.7528 13.6429 15.9977 13.2806 16.3062 12.9767V12.9767C16.9123 12.3599 17.252 11.5297 17.252 10.6649C17.252 9.80011 16.9123 8.96992 16.3062 8.35313L10.4497 2.49668C9.82774 1.88858 8.99243 1.5481 8.12256 1.5481C7.2527 1.5481 6.41739 1.88858 5.79539 2.49668L4.43916 3.88373C2.83124 5.47035 1.81866 7.56221 1.57166 9.80759C1.32467 12.053 1.85834 14.3149 3.08293 16.2131C9.46352 25.6165 17.5821 33.7142 27.0019 40.0705V40.0705Z" stroke="#F47321" stroke-width="2" stroke-linecap="round" stroke-linejoin="round"/>
</svg>
