<svg width="33" height="33" viewBox="0 0 33 33" fill="none" xmlns="http://www.w3.org/2000/svg">
<path d="M16.4404 0.5C25.2437 0.500232 32.3799 7.63715 32.3799 16.4404C32.3797 25.2435 25.2435 32.3797 16.4404 32.3799C7.63715 32.3799 0.500232 25.2437 0.5 16.4404C0.5 7.63701 7.63701 0.5 16.4404 0.5Z" fill="white"/>
<path d="M16.4404 0.5C25.2437 0.500232 32.3799 7.63715 32.3799 16.4404C32.3797 25.2435 25.2435 32.3797 16.4404 32.3799C7.63715 32.3799 0.500232 25.2437 0.5 16.4404C0.5 7.63701 7.63701 0.5 16.4404 0.5Z" stroke="#A9A9A9"/>
<path d="M7.50146 24.9985L8.77367 20.3788C7.98714 19.0228 7.57453 17.4871 7.57883 15.9173C7.57883 10.9981 11.6017 6.99854 16.5401 6.99854C18.9384 6.99854 21.1906 7.92677 22.8797 9.61213C24.5731 11.2975 25.5057 13.5389 25.5015 15.9215C25.5015 20.8407 21.4785 24.8403 16.5358 24.8403H16.5315C15.0315 24.8403 13.5573 24.4638 12.2464 23.7538L7.50146 24.9985ZM12.4742 22.1411L12.745 22.3037C13.8883 22.9795 15.1992 23.3346 16.5358 23.3388H16.5401C20.6447 23.3388 23.9886 20.0152 23.9886 15.9258C23.9886 13.9453 23.2149 12.0846 21.8095 10.6815C20.404 9.27848 18.5301 8.50852 16.5401 8.50852C12.4356 8.50424 9.09172 11.8279 9.09172 15.9173C9.09172 17.316 9.48284 18.6806 10.2307 19.8612L10.4069 20.1435L9.65476 22.8769L12.4742 22.1411Z" fill="white"/>
<path d="M7.50146 24.9985L8.77367 20.3788C7.98714 19.0228 7.57453 17.4871 7.57883 15.9173C7.57883 10.9981 11.6017 6.99854 16.5401 6.99854C18.9384 6.99854 21.1906 7.92677 22.8797 9.61213C24.5731 11.2975 25.5057 13.5389 25.5015 15.9215C25.5015 20.8407 21.4785 24.8403 16.5358 24.8403H16.5315C15.0315 24.8403 13.5573 24.4638 12.2464 23.7538L7.50146 24.9985ZM12.4742 22.1411L12.745 22.3037C13.8883 22.9795 15.1992 23.3346 16.5358 23.3388H16.5401C20.6447 23.3388 23.9886 20.0152 23.9886 15.9258C23.9886 13.9453 23.2149 12.0846 21.8095 10.6815C20.404 9.27848 18.5301 8.50852 16.5401 8.50852C12.4356 8.50424 9.09172 11.8279 9.09172 15.9173C9.09172 17.316 9.48284 18.6806 10.2307 19.8612L10.4069 20.1435L9.65476 22.8769L12.4742 22.1411Z" fill="black"/>
<path fill-rule="evenodd" clip-rule="evenodd" d="M14.3008 12.1874C14.1332 11.8152 13.957 11.8067 13.798 11.8024C13.669 11.7981 13.5186 11.7981 13.3682 11.7981C13.2178 11.7981 12.9771 11.8537 12.7708 12.0761C12.5645 12.2986 11.9885 12.8375 11.9885 13.9369C11.9885 15.0319 12.7922 16.0928 12.904 16.2425C13.0157 16.3922 14.4556 18.7149 16.7292 19.6089C18.6203 20.3532 19.0071 20.2035 19.4155 20.165C19.8238 20.1265 20.7392 19.626 20.9283 19.1042C21.1132 18.5823 21.1132 18.1375 21.0573 18.0433C21.0014 17.9492 20.851 17.8936 20.6275 17.7824C20.404 17.6712 19.3037 17.1322 19.0974 17.0552C18.8911 16.9825 18.7407 16.944 18.5945 17.1664C18.4441 17.3889 18.0143 17.8894 17.8854 18.0391C17.7564 18.1888 17.6232 18.2059 17.3997 18.0947C17.1762 17.9835 16.4541 17.7482 15.5988 16.9868C14.9326 16.3965 14.4814 15.665 14.3524 15.4426C14.2235 15.2201 14.3395 15.1004 14.4513 14.9892C14.5501 14.8908 14.6748 14.7282 14.7865 14.5999C14.8983 14.4716 14.9369 14.3775 15.01 14.2278C15.0831 14.078 15.0487 13.9497 14.9928 13.8385C14.9369 13.7316 14.4986 12.6279 14.3008 12.1874Z" fill="black"/>
</svg>
