<svg width="33" height="33" viewBox="0 0 33 33" fill="none" xmlns="http://www.w3.org/2000/svg">
<path d="M16.4404 0.5C25.2437 0.500232 32.3799 7.63715 32.3799 16.4404C32.3797 25.2435 25.2435 32.3797 16.4404 32.3799C7.63715 32.3799 0.500232 25.2437 0.5 16.4404C0.5 7.63701 7.63701 0.5 16.4404 0.5Z" stroke="#A9A9A9"/>
<path d="M7.50195 24.9985L8.77416 20.3788C7.98763 19.0228 7.57502 17.4871 7.57932 15.9173C7.57932 10.9981 11.6022 6.99854 16.5406 6.99854C18.9389 6.99854 21.1911 7.92677 22.8802 9.61213C24.5736 11.2975 25.5062 13.5389 25.5019 15.9215C25.5019 20.8407 21.479 24.8403 16.5363 24.8403H16.532C15.032 24.8403 13.5578 24.4638 12.2469 23.7538L7.50195 24.9985ZM12.4747 22.1411L12.7455 22.3037C13.8888 22.9795 15.1997 23.3346 16.5363 23.3388H16.5406C20.6452 23.3388 23.989 20.0152 23.989 15.9258C23.989 13.9453 23.2154 12.0846 21.81 10.6815C20.4045 9.27848 18.5306 8.50852 16.5406 8.50852C12.436 8.50424 9.09221 11.8279 9.09221 15.9173C9.09221 17.316 9.48333 18.6806 10.2312 19.8612L10.4074 20.1435L9.65525 22.8769L12.4747 22.1411Z" fill="white"/>
<path d="M7.50195 24.9985L8.77416 20.3788C7.98763 19.0228 7.57502 17.4871 7.57932 15.9173C7.57932 10.9981 11.6022 6.99854 16.5406 6.99854C18.9389 6.99854 21.1911 7.92677 22.8802 9.61213C24.5736 11.2975 25.5062 13.5389 25.5019 15.9215C25.5019 20.8407 21.479 24.8403 16.5363 24.8403H16.532C15.032 24.8403 13.5578 24.4638 12.2469 23.7538L7.50195 24.9985ZM12.4747 22.1411L12.7455 22.3037C13.8888 22.9795 15.1997 23.3346 16.5363 23.3388H16.5406C20.6452 23.3388 23.989 20.0152 23.989 15.9258C23.989 13.9453 23.2154 12.0846 21.81 10.6815C20.4045 9.27848 18.5306 8.50852 16.5406 8.50852C12.436 8.50424 9.09221 11.8279 9.09221 15.9173C9.09221 17.316 9.48333 18.6806 10.2312 19.8612L10.4074 20.1435L9.65525 22.8769L12.4747 22.1411Z" fill="white"/>
<path fill-rule="evenodd" clip-rule="evenodd" d="M14.3006 12.1874C14.133 11.8152 13.9568 11.8067 13.7977 11.8024C13.6688 11.7981 13.5184 11.7981 13.3679 11.7981C13.2175 11.7981 12.9768 11.8537 12.7705 12.0761C12.5642 12.2986 11.9883 12.8375 11.9883 13.9369C11.9883 15.0319 12.792 16.0928 12.9038 16.2425C13.0155 16.3922 14.4553 18.7149 16.729 19.6089C18.6201 20.3532 19.0069 20.2035 19.4152 20.165C19.8235 20.1265 20.739 19.626 20.9281 19.1042C21.1129 18.5823 21.1129 18.1375 21.057 18.0433C21.0012 17.9492 20.8507 17.8936 20.6272 17.7824C20.4037 17.6712 19.3035 17.1322 19.0972 17.0552C18.8909 16.9825 18.7404 16.944 18.5943 17.1664C18.4439 17.3889 18.0141 17.8894 17.8851 18.0391C17.7562 18.1888 17.6229 18.2059 17.3995 18.0947C17.176 17.9835 16.4539 17.7482 15.5986 16.9868C14.9324 16.3965 14.4811 15.665 14.3522 15.4426C14.2232 15.2201 14.3393 15.1004 14.451 14.9892C14.5499 14.8908 14.6745 14.7282 14.7863 14.5999C14.898 14.4716 14.9367 14.3775 15.0098 14.2278C15.0828 14.078 15.0485 13.9497 14.9926 13.8385C14.9367 13.7316 14.4983 12.6279 14.3006 12.1874Z" fill="white"/>
</svg>
