<svg width="33" height="33" viewBox="0 0 33 33" fill="none" xmlns="http://www.w3.org/2000/svg">
<path d="M16.4404 0.5C25.2437 0.500232 32.3799 7.63715 32.3799 16.4404C32.3797 25.2435 25.2435 32.3797 16.4404 32.3799C7.63715 32.3799 0.500232 25.2437 0.5 16.4404C0.5 7.63701 7.63701 0.5 16.4404 0.5Z" stroke="#A9A9A9"/>
<path d="M18.1269 14.8265L23.6347 8H21.1761L16.9719 13.2137L13.2423 8H7.89062L14.1352 16.7273L8.26695 24H10.7256L15.2902 18.3444L19.339 24H24.6906L18.1269 14.8265ZM16.2226 17.1868L15.0676 15.5714L10.5786 9.30167H12.4266L16.0487 14.3555L17.2037 15.9708L22.0177 22.6983H20.1697L16.2226 17.1868Z" fill="white"/>
</svg>
